<svg width="25" height="25" viewBox="0 0 25 25" fill="none" xmlns="http://www.w3.org/2000/svg"><path d="M12.5 0C5.59692 0 0 5.59692 0 12.5 0 19.4031 5.59692 25 12.5 25 19.4031 25 25 19.4031 25 12.5 25 5.59692 19.4031 0 12.5 0Z" fill="#fff"/><path d="M12.6803 6.88879c.8985 0 1.6292.7543 1.6292 1.68182 0 .92472-.7307 1.67899-1.6292 1.67899s-1.6292-.75427-1.6292-1.67899c0-.92752.7307-1.68182 1.6292-1.68182Zm0 5.74111c2.1705 0 3.935-1.8215 3.935-4.05929 0-2.24056-1.7645-4.06207-3.935-4.06207-2.1704 0-3.93223 1.82151-3.93223 4.06207 0 2.23779 1.76183 4.05929 3.93223 4.05929Zm1.5913 3.3133c.8011-.19 1.5724-.5168 2.2842-.9778.5385-.3492.7009-1.0839.3626-1.6399-.341-.5587-1.05-.7264-1.5913-.3744-1.6102 1.0449-3.6833 1.0449-5.2962 0-.53859-.352-1.25035-.1843-1.58864.3744-.33829.556-.17591 1.2907.36265 1.6399.71176.461 1.48309.7878 2.28409.9778l-2.2002 2.2685c-.44924.4638-.44924 1.2181 0 1.6818.22733.2319.51961.3492.8146.3492s.59-.1173.8173-.3492l2.1596-2.2294 2.1624 2.2294c.4492.4666 1.1772.4666 1.6292 0 .4492-.4637.4492-1.218 0-1.6818l-2.2003-2.2685Z" fill="#030A1A"/></svg>