<svg width="25" height="25" viewBox="0 0 25 25" fill="none" xmlns="http://www.w3.org/2000/svg"><path d="M12.5 0C5.597 0 0 5.597 0 12.5 0 19.4031 5.597 25 12.5 25 19.4031 25 25 19.4031 25 12.5 25 5.597 19.4031 0 12.5 0Z" fill="#fff"/><path d="M13.8509 5.5557c-.4454 0-.8633.2259-1.1314.5517s-.4158.723-.5235 1.1416c-.1709.673-.2237 1.4198-.2364 2.0928-1.2517.0833-2.3852.4543-3.3266 1.0274-.382-.3211-.8422-.4994-1.2833-.4947-.5024.0048-.9794.2212-1.334.6659-.6776.8491-.5995 2.238.1857 3.0632-.0485.2545-.0844.5161-.0844.7801 0 2.7968 2.858 5.0609 6.383 5.0609s6.383-2.2665 6.383-5.0609c0-.264-.0359-.5256-.0844-.7801.7852-.8252.8633-2.2141.1857-3.0632-.3546-.4447-.8316-.6611-1.334-.6659-.4412-.0047-.9013.1736-1.2834.4947-.9371-.5708-2.0643-.9418-3.3097-1.0274.0169-.6207.0612-1.2652.1858-1.7504.0781-.3044.171-.5256.2702-.6469.0992-.1212.1709-.1712.3377-.1712.3609 0 .4074.1166.6248.3996.1097.1427.2364.321.439.4946.2027.1736.5024.3235.8274.3235V6.7733c-.0907 0-.1076-.0024-.1688-.057-.0612-.0548-.1457-.1808-.2702-.3425-.2491-.3258-.7324-.8181-1.4522-.8181Zm3.5123.1141c-.8401 0-1.5197.7658-1.5197 1.7123 0 .9466.6796 1.7124 1.5197 1.7124.8401 0 1.5198-.7658 1.5198-1.7123 0-.9466-.6797-1.7124-1.5198-1.7124Zm0 .6088c.5404 0 .9794.4947.9794 1.1036 0 .6088-.439 1.1034-.9794 1.1034-.5403 0-.9794-.4946-.9794-1.1034 0-.6089.4391-1.1036.9794-1.1036ZM12.5 10.2932c2.991 0 5.5218 1.8764 5.5218 4.0906 0 2.2165-2.5308 4.0905-5.5218 4.0905-2.991 0-5.5218-1.874-5.5218-4.0905 0-2.2142 2.5308-4.0906 5.5218-4.0906Zm-5.1334.5518c.1498.0023.306.0404.4559.1141-.5425.4638-.973.9965-1.2665 1.5982-.2026-.4709-.1477-1.0583.1013-1.3699.1816-.2283.4327-.3448.7093-.3424Zm10.2668 0c.2765-.0024.5277.1141.7092.3424.2491.3116.304.899.1013 1.3699-.2933-.6017-.7239-1.1344-1.2664-1.5982.1498-.0737.306-.1118.4559-.1141Zm-7.2949 1.522c-.5403 0-.9794.4947-.9794 1.1035 0 .6089.439 1.1035.9794 1.1035s.9794-.4946.9794-1.1035c0-.6088-.439-1.1035-.9794-1.1035Zm4.3229 0c-.5403 0-.9794.4947-.9794 1.1035 0 .6089.4391 1.1035.9794 1.1035.5404 0 .9794-.4946.9794-1.1035 0-.6088-.439-1.1035-.9794-1.1035ZM9.8151 16.115c.344.8015 1.4079 1.5792 2.6849 1.5792s2.3577-.7777 2.7018-1.5792c-.6248.4543-1.6105.7611-2.7018.7611s-2.0601-.3068-2.685-.7611Z" fill="#030A1A"/></svg>