<svg xmlns="http://www.w3.org/2000/svg" xmlns:xlink="http://www.w3.org/1999/xlink"><symbol id="logo-supergym" viewBox="0 0 87 20"><path d="M.676 5.168c0-1.473.355-2.6 1.066-3.38C2.452.991 3.502.592 4.888.592c1.387 0 2.435.399 3.146 1.196.71.78 1.066 1.907 1.066 3.38v.572H6.396v-.754c0-1.196-.477-1.794-1.43-1.794s-1.43.598-1.43 1.794c0 .676.19 1.317.572 1.924.381.59.84 1.127 1.378 1.612.555.485 1.11.997 1.664 1.534.555.52 1.023 1.179 1.404 1.976.381.78.572 1.647.572 2.6 0 1.473-.364 2.609-1.092 3.406-.728.78-1.785 1.17-3.172 1.17-1.387 0-2.444-.39-3.172-1.17-.728-.797-1.092-1.933-1.092-3.406v-1.118h2.704v1.3c0 1.179.494 1.768 1.482 1.768s1.482-.59 1.482-1.768a3.43 3.43 0 0 0-.572-1.898 7.405 7.405 0 0 0-1.404-1.638c-.537-.485-1.083-.988-1.638-1.508-.555-.537-1.023-1.196-1.404-1.976C.867 6.997.676 6.121.676 5.168ZM11.155.8h2.86v14.04c0 1.179.494 1.768 1.482 1.768s1.482-.59 1.482-1.768V.8h2.704v13.858c0 1.473-.364 2.609-1.092 3.406-.728.78-1.786 1.17-3.172 1.17-1.387 0-2.444-.39-3.172-1.17-.728-.797-1.092-1.933-1.092-3.406V.8Zm15.221 0c2.843 0 4.264 1.5 4.264 4.498v2.366c0 2.999-1.421 4.498-4.264 4.498h-1.352V19h-2.86V.8h4.212Zm0 2.6h-1.352v6.162h1.352c.468 0 .815-.13 1.04-.39.243-.26.364-.702.364-1.326v-2.73c0-.624-.121-1.066-.364-1.326-.225-.26-.572-.39-1.04-.39Zm8.969 0v5.07h3.926v2.6h-3.926v5.33h4.94V19h-7.8V.8h7.8v2.6h-4.94ZM51.469 19h-2.912c-.173-.52-.26-1.265-.26-2.236v-2.86c0-.832-.147-1.421-.442-1.768-.295-.364-.771-.546-1.43-.546h-.988V19h-2.86V.8h4.316c1.473 0 2.548.347 3.224 1.04.676.676 1.014 1.725 1.014 3.146v1.43c0 1.872-.624 3.103-1.872 3.692 1.265.537 1.898 1.829 1.898 3.874v2.808c0 .988.104 1.725.312 2.21ZM46.815 3.4h-1.378v5.59h1.118c.572 0 .997-.147 1.274-.442.295-.295.442-.789.442-1.482V5.272c0-1.248-.485-1.872-1.456-1.872Zm11.033 8.06v-2.6h4.004v5.772c0 1.473-.364 2.609-1.092 3.406-.728.78-1.785 1.17-3.172 1.17-1.387 0-2.444-.39-3.172-1.17-.728-.797-1.092-1.933-1.092-3.406V5.168c0-1.473.364-2.6 1.092-3.38.728-.797 1.785-1.196 3.172-1.196 1.387 0 2.444.399 3.172 1.196.728.78 1.092 1.907 1.092 3.38v1.768h-2.704v-1.95c0-1.196-.494-1.794-1.482-1.794s-1.482.598-1.482 1.794v9.828c0 1.179.494 1.768 1.482 1.768s1.482-.59 1.482-1.768V11.46h-1.3ZM66.506 19v-6.032L62.892.8h2.99l2.184 8.294L70.25.8h2.73l-3.614 12.168V19h-2.86ZM78.609.8l2.106 12.922L82.665.8h3.978V19h-2.704V5.948L81.963 19h-2.704L77.127 6.13V19H74.63V.8h3.978Z" fill="#fff"/></symbol><symbol id="odnoklassniki" viewBox="0 0 25 25"><path d="M12.5 0C5.597 0 0 5.597 0 12.5 0 19.4031 5.597 25 12.5 25 19.4031 25 25 19.4031 25 12.5 25 5.597 19.4031 0 12.5 0Z" fill="#fff"/><path d="M12.6803 6.8888c.8985 0 1.6292.7543 1.6292 1.6818 0 .9247-.7307 1.679-1.6292 1.679s-1.6292-.7543-1.6292-1.679c0-.9275.7307-1.6818 1.6292-1.6818Zm0 5.7411c2.1705 0 3.935-1.8215 3.935-4.0593 0-2.2406-1.7645-4.062-3.935-4.062-2.1704 0-3.9322 1.8214-3.9322 4.062 0 2.2378 1.7618 4.0593 3.9322 4.0593Zm1.5913 3.3133a7.292 7.292 0 0 0 2.2842-.9778c.5385-.3492.7009-1.0839.3626-1.6399-.341-.5587-1.05-.7264-1.5913-.3744-1.6102 1.0449-3.6833 1.0449-5.2962 0-.5386-.352-1.2504-.1843-1.5886.3744-.3383.556-.176 1.2907.3626 1.6399a7.292 7.292 0 0 0 2.2841.9778l-2.2002 2.2685c-.4492.4638-.4492 1.2181 0 1.6818.2273.2319.5196.3492.8146.3492.295 0 .59-.1173.8173-.3492l2.1596-2.2294 2.1624 2.2294c.4492.4666 1.1772.4666 1.6292 0 .4492-.4637.4492-1.218 0-1.6818l-2.2003-2.2685Z" fill="#030A1A"/></symbol><symbol id="reddit" viewBox="0 0 25 25"><path d="M12.5 0C5.597 0 0 5.597 0 12.5 0 19.4031 5.597 25 12.5 25 19.4031 25 25 19.4031 25 12.5 25 5.597 19.4031 0 12.5 0Z" fill="#fff"/><path d="M13.8509 5.5557c-.4454 0-.8633.2259-1.1314.5517s-.4158.723-.5235 1.1416c-.1709.673-.2237 1.4198-.2364 2.0928-1.2517.0833-2.3852.4543-3.3266 1.0274-.382-.3211-.8422-.4994-1.2833-.4947-.5024.0048-.9794.2212-1.334.6659-.6776.8491-.5995 2.238.1857 3.0632-.0485.2545-.0844.5161-.0844.7801 0 2.7968 2.858 5.0609 6.383 5.0609s6.383-2.2665 6.383-5.0609c0-.264-.0359-.5256-.0844-.7801.7852-.8252.8633-2.2141.1857-3.0632-.3546-.4447-.8316-.6611-1.334-.6659-.4412-.0047-.9013.1736-1.2834.4947-.9371-.5708-2.0643-.9418-3.3097-1.0274.0169-.6207.0612-1.2652.1858-1.7504.0781-.3044.171-.5256.2702-.6469.0992-.1212.1709-.1712.3377-.1712.3609 0 .4074.1166.6248.3996.1097.1427.2364.321.439.4946.2027.1736.5024.3235.8274.3235V6.7733c-.0907 0-.1076-.0024-.1688-.057-.0612-.0548-.1457-.1808-.2702-.3425-.2491-.3258-.7324-.8181-1.4522-.8181Zm3.5123.1141c-.8401 0-1.5197.7658-1.5197 1.7123 0 .9466.6796 1.7124 1.5197 1.7124.8401 0 1.5198-.7658 1.5198-1.7123 0-.9466-.6797-1.7124-1.5198-1.7124Zm0 .6088c.5404 0 .9794.4947.9794 1.1036 0 .6088-.439 1.1034-.9794 1.1034-.5403 0-.9794-.4946-.9794-1.1034 0-.6089.4391-1.1036.9794-1.1036ZM12.5 10.2932c2.991 0 5.5218 1.8764 5.5218 4.0906 0 2.2165-2.5308 4.0905-5.5218 4.0905-2.991 0-5.5218-1.874-5.5218-4.0905 0-2.2142 2.5308-4.0906 5.5218-4.0906Zm-5.1334.5518c.1498.0023.306.0404.4559.1141-.5425.4638-.973.9965-1.2665 1.5982-.2026-.4709-.1477-1.0583.1013-1.3699.1816-.2283.4327-.3448.7093-.3424Zm10.2668 0c.2765-.0024.5277.1141.7092.3424.2491.3116.304.899.1013 1.3699-.2933-.6017-.7239-1.1344-1.2664-1.5982.1498-.0737.306-.1118.4559-.1141Zm-7.2949 1.522c-.5403 0-.9794.4947-.9794 1.1035 0 .6089.439 1.1035.9794 1.1035s.9794-.4946.9794-1.1035c0-.6088-.439-1.1035-.9794-1.1035Zm4.3229 0c-.5403 0-.9794.4947-.9794 1.1035 0 .6089.4391 1.1035.9794 1.1035.5404 0 .9794-.4946.9794-1.1035 0-.6088-.439-1.1035-.9794-1.1035ZM9.8151 16.115c.344.8015 1.4079 1.5792 2.6849 1.5792s2.3577-.7777 2.7018-1.5792c-.6248.4543-1.6105.7611-2.7018.7611s-2.0601-.3068-2.685-.7611Z" fill="#030A1A"/></symbol><symbol id="vk" viewBox="0 0 25 25"><path d="M12.5 0C5.59692 0 0 5.59692 0 12.5 0 19.4031 5.59692 25 12.5 25 19.4031 25 25 19.4031 25 12.5 25 5.59692 19.4031 0 12.5 0Z" fill="#fff"/><path d="M13.7227 15.0518c.4427-.1431 1.0095.9446 1.6128 1.3609.4529.3153.7997.2472.7997.2472l1.6082-.0231s.8405-.0519.4432-.7196c-.0329-.0556-.233-.495-1.197-1.3993-1.0081-.9461-.8715-.7928.3422-2.4283.7395-.9969 1.0353-1.6058.9427-1.8652-.0889-.24954-.632-.1847-.632-.1847l-1.812.0125c-.1764.0005-.3259.0551-.394.2385-.0014.0018-.2876.7714-.6691 1.4257-.8062 1.3841-1.128 1.4577-1.2614 1.3711-.306-.2005-.2287-.8043-.2287-1.2336 0-1.3414.2-1.9008-.3918-2.04527-.1977-.04816-.3422-.07965-.8464-.08428-.6446-.00972-1.1919 0-1.5022.15235-.206.10326-.3639.3297-.2681.3427.1204.0162.3904.074.5349.2713.1856.2556.1801.8284.1801.8284s.106 1.5795-.2501 1.7753c-.2444.1343-.5788-.1398-1.29789-1.3965-.3672-.6427-.64457-1.3531-.64457-1.3531s-.05371-.1319-.15095-.2042c-.11577-.0856-.27783-.1129-.27783-.1129l-1.71978.0111s-.25838.0074-.3533.1213c-.08428.1009-.00695.3093-.00695.3093s1.34702 3.1863 2.87231 4.7912c1.39846 1.4734 2.98756 1.3757 2.98756 1.3757h.7201s.2172-.025.3283-.1445c.1037-.1111.0991-.3199.0991-.3199s-.0144-.9766.4329-1.1201Z" fill="#030A1A"/></symbol></svg>