<svg xmlns="http://www.w3.org/2000/svg" xmlns:xlink="http://www.w3.org/1999/xlink"><symbol id="arrow" viewBox="0 0 18 34"><path d="M17 1 1 17l16 16" stroke="#AFAFAF"/></symbol><symbol id="logo-supergym" viewBox="0 0 87 20"><path d="M.676 5.168c0-1.473.355-2.6 1.066-3.38C2.452.991 3.502.592 4.888.592c1.387 0 2.435.399 3.146 1.196.71.78 1.066 1.907 1.066 3.38v.572H6.396v-.754c0-1.196-.477-1.794-1.43-1.794s-1.43.598-1.43 1.794c0 .676.19 1.317.572 1.924.381.59.84 1.127 1.378 1.612.555.485 1.11.997 1.664 1.534.555.52 1.023 1.179 1.404 1.976.381.78.572 1.647.572 2.6 0 1.473-.364 2.609-1.092 3.406-.728.78-1.785 1.17-3.172 1.17-1.387 0-2.444-.39-3.172-1.17-.728-.797-1.092-1.933-1.092-3.406v-1.118h2.704v1.3c0 1.179.494 1.768 1.482 1.768s1.482-.59 1.482-1.768a3.43 3.43 0 0 0-.572-1.898 7.405 7.405 0 0 0-1.404-1.638c-.537-.485-1.083-.988-1.638-1.508-.555-.537-1.023-1.196-1.404-1.976C.867 6.997.676 6.121.676 5.168ZM11.155.8h2.86v14.04c0 1.179.494 1.768 1.482 1.768s1.482-.59 1.482-1.768V.8h2.704v13.858c0 1.473-.364 2.609-1.092 3.406-.728.78-1.786 1.17-3.172 1.17-1.387 0-2.444-.39-3.172-1.17-.728-.797-1.092-1.933-1.092-3.406V.8Zm15.221 0c2.843 0 4.264 1.5 4.264 4.498v2.366c0 2.999-1.421 4.498-4.264 4.498h-1.352V19h-2.86V.8h4.212Zm0 2.6h-1.352v6.162h1.352c.468 0 .815-.13 1.04-.39.243-.26.364-.702.364-1.326v-2.73c0-.624-.121-1.066-.364-1.326-.225-.26-.572-.39-1.04-.39Zm8.969 0v5.07h3.926v2.6h-3.926v5.33h4.94V19h-7.8V.8h7.8v2.6h-4.94ZM51.469 19h-2.912c-.173-.52-.26-1.265-.26-2.236v-2.86c0-.832-.147-1.421-.442-1.768-.295-.364-.771-.546-1.43-.546h-.988V19h-2.86V.8h4.316c1.473 0 2.548.347 3.224 1.04.676.676 1.014 1.725 1.014 3.146v1.43c0 1.872-.624 3.103-1.872 3.692 1.265.537 1.898 1.829 1.898 3.874v2.808c0 .988.104 1.725.312 2.21ZM46.815 3.4h-1.378v5.59h1.118c.572 0 .997-.147 1.274-.442.295-.295.442-.789.442-1.482V5.272c0-1.248-.485-1.872-1.456-1.872Zm11.033 8.06v-2.6h4.004v5.772c0 1.473-.364 2.609-1.092 3.406-.728.78-1.785 1.17-3.172 1.17-1.387 0-2.444-.39-3.172-1.17-.728-.797-1.092-1.933-1.092-3.406V5.168c0-1.473.364-2.6 1.092-3.38.728-.797 1.785-1.196 3.172-1.196 1.387 0 2.444.399 3.172 1.196.728.78 1.092 1.907 1.092 3.38v1.768h-2.704v-1.95c0-1.196-.494-1.794-1.482-1.794s-1.482.598-1.482 1.794v9.828c0 1.179.494 1.768 1.482 1.768s1.482-.59 1.482-1.768V11.46h-1.3ZM66.506 19v-6.032L62.892.8h2.99l2.184 8.294L70.25.8h2.73l-3.614 12.168V19h-2.86ZM78.609.8l2.106 12.922L82.665.8h3.978V19h-2.704V5.948L81.963 19h-2.704L77.127 6.13V19H74.63V.8h3.978Z" fill="#fff"/></symbol><symbol id="odnoklassniki" viewBox="0 0 25 25"><path d="M12.5 0C5.59692 0 0 5.59692 0 12.5 0 19.4031 5.59692 25 12.5 25 19.4031 25 25 19.4031 25 12.5 25 5.59692 19.4031 0 12.5 0Z" fill="#fff"/><path d="M12.6803 6.88879c.8985 0 1.6292.7543 1.6292 1.68182 0 .92472-.7307 1.67899-1.6292 1.67899s-1.6292-.75427-1.6292-1.67899c0-.92752.7307-1.68182 1.6292-1.68182Zm0 5.74111c2.1705 0 3.935-1.8215 3.935-4.05929 0-2.24056-1.7645-4.06207-3.935-4.06207-2.1704 0-3.93223 1.82151-3.93223 4.06207 0 2.23779 1.76183 4.05929 3.93223 4.05929Zm1.5913 3.3133c.8011-.19 1.5724-.5168 2.2842-.9778.5385-.3492.7009-1.0839.3626-1.6399-.341-.5587-1.05-.7264-1.5913-.3744-1.6102 1.0449-3.6833 1.0449-5.2962 0-.53859-.352-1.25035-.1843-1.58864.3744-.33829.556-.17591 1.2907.36265 1.6399.71176.461 1.48309.7878 2.28409.9778l-2.2002 2.2685c-.44924.4638-.44924 1.2181 0 1.6818.22733.2319.51961.3492.8146.3492s.59-.1173.8173-.3492l2.1596-2.2294 2.1624 2.2294c.4492.4666 1.1772.4666 1.6292 0 .4492-.4637.4492-1.218 0-1.6818l-2.2003-2.2685Z" fill="#030A1A"/></symbol><symbol id="reddit" viewBox="0 0 25 25"><path d="M12.5 0C5.59692 0 0 5.59692 0 12.5 0 19.4031 5.59692 25 12.5 25 19.4031 25 25 19.4031 25 12.5 25 5.59692 19.4031 0 12.5 0Z" fill="#fff"/><path d="M13.8509 5.55566c-.4454 0-.8633.22594-1.1314.55175-.2681.32582-.4158.72299-.5235 1.14156-.1709.67304-.2237 1.4198-.2364 2.09284-1.2517.08324-2.38516.45425-3.32657 1.02739-.38205-.3211-.8422-.49942-1.28335-.49466-.50237.00475-.9794.22116-1.33402.66586-.67756.8491-.59946 2.238.18575 3.0632-.04855.2545-.08443.5161-.08443.7801 0 2.7968 2.858 5.0609 6.38302 5.0609 3.525 0 6.383-2.2665 6.383-5.0609 0-.264-.0359-.5256-.0844-.7801.7852-.8252.8633-2.2141.1857-3.0632-.3546-.4447-.8316-.66111-1.334-.66586-.4412-.00476-.9013.17356-1.2834.49466-.9371-.57077-2.0643-.94177-3.3097-1.02739.0169-.62072.0612-1.26522.1858-1.75038.0781-.30441.171-.52559.2702-.64688.0992-.12129.1709-.17123.3377-.17123.3609 0 .4074.11653.6248.39954.1097.1427.2364.32107.439.49468.2027.17361.5024.32344.8274.32344V6.77332c-.0907 0-.1076-.00238-.1688-.05708-.0612-.0547-.1457-.18074-.2702-.34246-.2491-.32582-.7324-.81812-1.4522-.81812Zm3.5123.11416c-.8401 0-1.5197.76579-1.5197 1.71233 0 .94654.6796 1.71233 1.5197 1.71233.8401 0 1.5198-.76579 1.5198-1.71233 0-.94654-.6797-1.71233-1.5198-1.71233Zm0 .60883c.5404 0 .9794.49467.9794 1.1035s-.439 1.1035-.9794 1.1035c-.5403 0-.9794-.49467-.9794-1.1035s.4391-1.1035.9794-1.1035ZM12.5 10.2931c2.991 0 5.5218 1.8764 5.5218 4.0906 0 2.2165-2.5308 4.0905-5.5218 4.0905-2.99099 0-5.52182-1.874-5.52182-4.0905 0-2.2142 2.53083-4.0906 5.52182-4.0906Zm-5.13344.5518c.14987.0023.30607.0404.45593.1141-.54247.4638-.97307.9965-1.26647 1.5982-.20263-.4709-.14775-1.0583.10132-1.3699.18153-.2283.43271-.3448.70922-.3424Zm10.26684 0c.2765-.0024.5277.1141.7092.3424.2491.3116.304.899.1013 1.3699-.2933-.6017-.7239-1.1344-1.2664-1.5982.1498-.0737.306-.1118.4559-.1141Zm-7.2949 1.522c-.54031 0-.97936.4947-.97936 1.1035 0 .6089.43905 1.1035.97936 1.1035.5404 0 .9794-.4946.9794-1.1035 0-.6088-.439-1.1035-.9794-1.1035Zm4.3229 0c-.5403 0-.9794.4947-.9794 1.1035 0 .6089.4391 1.1035.9794 1.1035.5404 0 .9794-.4946.9794-1.1035 0-.6088-.439-1.1035-.9794-1.1035ZM9.81507 16.115c.34403.8015 1.40793 1.5792 2.68493 1.5792 1.277 0 2.3577-.7777 2.7018-1.5792-.6248.4543-1.6105.7611-2.7018.7611s-2.0601-.3068-2.68493-.7611Z" fill="#030A1A"/></symbol><symbol id="ruble" viewBox="0 0 30 42"><path fill-rule="evenodd" clip-rule="evenodd" d="M18.5 6H10v11h8.5c3.0376 0 5.5-2.4624 5.5-5.5C24 8.46243 21.5376 6 18.5 6ZM4 0v23h14.5C24.8513 23 30 17.8513 30 11.5 30 5.14873 24.8513 0 18.5 0H4Z" fill="#102654"/><path fill-rule="evenodd" clip-rule="evenodd" d="M0 17h6v6H0v-6Z" fill="#102654"/><path fill-rule="evenodd" clip-rule="evenodd" d="M3.65854 28.3214V18h6v10.3214H21v6H9.65854V42h-6v-7.6786H0v-6h3.65854Z" fill="#102654"/></symbol><symbol id="vkontakte" viewBox="0 0 25 25"><path d="M12.5 0C5.59692 0 0 5.59692 0 12.5 0 19.4031 5.59692 25 12.5 25 19.4031 25 25 19.4031 25 12.5 25 5.59692 19.4031 0 12.5 0Z" fill="#fff"/><path d="M13.7227 15.0518c.4427-.1431 1.0095.9446 1.6128 1.3609.4529.3153.7997.2472.7997.2472l1.6082-.0231s.8405-.0519.4432-.7196c-.0329-.0556-.233-.495-1.197-1.3993-1.0081-.9461-.8715-.7928.3422-2.4283.7395-.9969 1.0353-1.6058.9427-1.8652-.0889-.24954-.632-.1847-.632-.1847l-1.812.0125c-.1764.0005-.3259.0551-.394.2385-.0014.0018-.2876.7714-.6691 1.4257-.8062 1.3841-1.128 1.4577-1.2614 1.3711-.306-.2005-.2287-.8043-.2287-1.2336 0-1.3414.2-1.9008-.3918-2.04527-.1977-.04816-.3422-.07965-.8464-.08428-.6446-.00972-1.1919 0-1.5022.15235-.206.10326-.3639.3297-.2681.3427.1204.0162.3904.074.5349.2713.1856.2556.1801.8284.1801.8284s.106 1.5795-.2501 1.7753c-.2444.1343-.5788-.1398-1.29789-1.3965-.3672-.6427-.64457-1.3531-.64457-1.3531s-.05371-.1319-.15095-.2042c-.11577-.0856-.27783-.1129-.27783-.1129l-1.71978.0111s-.25838.0074-.3533.1213c-.08428.1009-.00695.3093-.00695.3093s1.34702 3.1863 2.87231 4.7912c1.39846 1.4734 2.98756 1.3757 2.98756 1.3757h.7201s.2172-.025.3283-.1445c.1037-.1111.0991-.3199.0991-.3199s-.0144-.9766.4329-1.1201Z" fill="#030A1A"/></symbol></svg>