<svg width="25" height="25" viewBox="0 0 25 25" fill="none" xmlns="http://www.w3.org/2000/svg"><path d="M12.5 0C5.597 0 0 5.597 0 12.5 0 19.4031 5.597 25 12.5 25 19.4031 25 25 19.4031 25 12.5 25 5.597 19.4031 0 12.5 0Z" fill="#fff"/><path d="M12.6803 6.8888c.8985 0 1.6292.7543 1.6292 1.6818 0 .9247-.7307 1.679-1.6292 1.679s-1.6292-.7543-1.6292-1.679c0-.9275.7307-1.6818 1.6292-1.6818Zm0 5.7411c2.1705 0 3.935-1.8215 3.935-4.0593 0-2.2406-1.7645-4.062-3.935-4.062-2.1704 0-3.9322 1.8214-3.9322 4.062 0 2.2378 1.7618 4.0593 3.9322 4.0593Zm1.5913 3.3133a7.292 7.292 0 0 0 2.2842-.9778c.5385-.3492.7009-1.0839.3626-1.6399-.341-.5587-1.05-.7264-1.5913-.3744-1.6102 1.0449-3.6833 1.0449-5.2962 0-.5386-.352-1.2504-.1843-1.5886.3744-.3383.556-.176 1.2907.3626 1.6399a7.292 7.292 0 0 0 2.2841.9778l-2.2002 2.2685c-.4492.4638-.4492 1.2181 0 1.6818.2273.2319.5196.3492.8146.3492.295 0 .59-.1173.8173-.3492l2.1596-2.2294 2.1624 2.2294c.4492.4666 1.1772.4666 1.6292 0 .4492-.4637.4492-1.218 0-1.6818l-2.2003-2.2685Z" fill="#030A1A"/></svg>