<svg width="25" height="25" viewBox="0 0 25 25" fill="none" xmlns="http://www.w3.org/2000/svg"><path d="M12.5 0C5.59692 0 0 5.59692 0 12.5 0 19.4031 5.59692 25 12.5 25 19.4031 25 25 19.4031 25 12.5 25 5.59692 19.4031 0 12.5 0Z" fill="#fff"/><path d="M13.8509 5.55566c-.4454 0-.8633.22594-1.1314.55175-.2681.32582-.4158.72299-.5235 1.14156-.1709.67304-.2237 1.4198-.2364 2.09284-1.2517.08324-2.38516.45425-3.32657 1.02739-.38205-.3211-.8422-.49942-1.28335-.49466-.50237.00475-.9794.22116-1.33402.66586-.67756.8491-.59946 2.238.18575 3.0632-.04855.2545-.08443.5161-.08443.7801 0 2.7968 2.858 5.0609 6.38302 5.0609 3.525 0 6.383-2.2665 6.383-5.0609 0-.264-.0359-.5256-.0844-.7801.7852-.8252.8633-2.2141.1857-3.0632-.3546-.4447-.8316-.66111-1.334-.66586-.4412-.00476-.9013.17356-1.2834.49466-.9371-.57077-2.0643-.94177-3.3097-1.02739.0169-.62072.0612-1.26522.1858-1.75038.0781-.30441.171-.52559.2702-.64688.0992-.12129.1709-.17123.3377-.17123.3609 0 .4074.11653.6248.39954.1097.1427.2364.32107.439.49468.2027.17361.5024.32344.8274.32344V6.77332c-.0907 0-.1076-.00238-.1688-.05708-.0612-.0547-.1457-.18074-.2702-.34246-.2491-.32582-.7324-.81812-1.4522-.81812Zm3.5123.11416c-.8401 0-1.5197.76579-1.5197 1.71233 0 .94654.6796 1.71233 1.5197 1.71233.8401 0 1.5198-.76579 1.5198-1.71233 0-.94654-.6797-1.71233-1.5198-1.71233Zm0 .60883c.5404 0 .9794.49467.9794 1.1035s-.439 1.1035-.9794 1.1035c-.5403 0-.9794-.49467-.9794-1.1035s.4391-1.1035.9794-1.1035ZM12.5 10.2931c2.991 0 5.5218 1.8764 5.5218 4.0906 0 2.2165-2.5308 4.0905-5.5218 4.0905-2.99099 0-5.52182-1.874-5.52182-4.0905 0-2.2142 2.53083-4.0906 5.52182-4.0906Zm-5.13344.5518c.14987.0023.30607.0404.45593.1141-.54247.4638-.97307.9965-1.26647 1.5982-.20263-.4709-.14775-1.0583.10132-1.3699.18153-.2283.43271-.3448.70922-.3424Zm10.26684 0c.2765-.0024.5277.1141.7092.3424.2491.3116.304.899.1013 1.3699-.2933-.6017-.7239-1.1344-1.2664-1.5982.1498-.0737.306-.1118.4559-.1141Zm-7.2949 1.522c-.54031 0-.97936.4947-.97936 1.1035 0 .6089.43905 1.1035.97936 1.1035.5404 0 .9794-.4946.9794-1.1035 0-.6088-.439-1.1035-.9794-1.1035Zm4.3229 0c-.5403 0-.9794.4947-.9794 1.1035 0 .6089.4391 1.1035.9794 1.1035.5404 0 .9794-.4946.9794-1.1035 0-.6088-.439-1.1035-.9794-1.1035ZM9.81507 16.115c.34403.8015 1.40793 1.5792 2.68493 1.5792 1.277 0 2.3577-.7777 2.7018-1.5792-.6248.4543-1.6105.7611-2.7018.7611s-2.0601-.3068-2.68493-.7611Z" fill="#030A1A"/></svg>