<svg width="25" height="25" viewBox="0 0 25 25" fill="none" xmlns="http://www.w3.org/2000/svg"><path d="M12.5 0C5.59692 0 0 5.59692 0 12.5 0 19.4031 5.59692 25 12.5 25 19.4031 25 25 19.4031 25 12.5 25 5.59692 19.4031 0 12.5 0Z" fill="#fff"/><path d="M13.7227 15.0518c.4427-.1431 1.0095.9446 1.6128 1.3609.4529.3153.7997.2472.7997.2472l1.6082-.0231s.8405-.0519.4432-.7196c-.0329-.0556-.233-.495-1.197-1.3993-1.0081-.9461-.8715-.7928.3422-2.4283.7395-.9969 1.0353-1.6058.9427-1.8652-.0889-.24954-.632-.1847-.632-.1847l-1.812.0125c-.1764.0005-.3259.0551-.394.2385-.0014.0018-.2876.7714-.6691 1.4257-.8062 1.3841-1.128 1.4577-1.2614 1.3711-.306-.2005-.2287-.8043-.2287-1.2336 0-1.3414.2-1.9008-.3918-2.04527-.1977-.04816-.3422-.07965-.8464-.08428-.6446-.00972-1.1919 0-1.5022.15235-.206.10326-.3639.3297-.2681.3427.1204.0162.3904.074.5349.2713.1856.2556.1801.8284.1801.8284s.106 1.5795-.2501 1.7753c-.2444.1343-.5788-.1398-1.29789-1.3965-.3672-.6427-.64457-1.3531-.64457-1.3531s-.05371-.1319-.15095-.2042c-.11577-.0856-.27783-.1129-.27783-.1129l-1.71978.0111s-.25838.0074-.3533.1213c-.08428.1009-.00695.3093-.00695.3093s1.34702 3.1863 2.87231 4.7912c1.39846 1.4734 2.98756 1.3757 2.98756 1.3757h.7201s.2172-.025.3283-.1445c.1037-.1111.0991-.3199.0991-.3199s-.0144-.9766.4329-1.1201Z" fill="#030A1A"/></svg>